<?xml version="1.0" encoding="UTF-8"?>
<svg version="1.1" xmlns="http://www.w3.org/2000/svg" width="1886" height="1012">
<path d="M0 0 C622.38 0 1244.76 0 1886 0 C1886 333.96 1886 667.92 1886 1012 C1263.62 1012 641.24 1012 0 1012 C0 678.04 0 344.08 0 0 Z " fill="#FFFEFE" transform="translate(0,0)"/>
<path d="M0 0 C33.40144441 -0.06642681 66.80282349 -0.12170607 100.20431431 -0.15319599 C104.16859898 -0.15694706 108.13288351 -0.16083013 112.09716797 -0.16479492 C112.88621894 -0.16558185 113.67526991 -0.16636878 114.48823151 -0.16717956 C127.18035754 -0.18015064 139.87244182 -0.20375741 152.56454328 -0.23145839 C165.63669796 -0.25974592 178.70883114 -0.2762249 191.78101516 -0.28226548 C199.10285173 -0.28597374 206.42460125 -0.29480097 213.74640656 -0.31719017 C266.75111087 -0.47418406 266.75111087 -0.47418406 287.93261719 1.33081055 C288.97352815 1.41843389 288.97352815 1.41843389 290.03546762 1.5078274 C299.53088368 2.34318369 308.69085251 4.03341994 318 6 C319.77194903 6.3271771 321.54508386 6.64814378 323.3203125 6.95703125 C373.99517909 15.90269121 424.66377769 37.86072825 462.73046875 72.9140625 C464.8276005 74.84154676 466.96376355 76.70761357 469.125 78.5625 C500.25596002 105.74728199 522.06109848 144.21225774 535 183 C535.38357666 184.13042725 535.38357666 184.13042725 535.77490234 185.28369141 C540.09535446 198.20916857 542.695135 211.58857949 545 225 C545.25209229 226.4533374 545.25209229 226.4533374 545.50927734 227.93603516 C551.49816244 264.34721535 549.95573573 304.8334019 543 341 C542.86368164 341.70930664 542.72736328 342.41861328 542.58691406 343.14941406 C534.59967914 383.56519167 519.96322591 425.09332924 493.44580078 457.23828125 C492.30655595 458.62645934 491.18323655 460.02770741 490.06591797 461.43359375 C484.5659366 468.29550998 478.72290482 474.66424606 472.5 480.875 C471.78500839 481.58917587 471.78500839 481.58917587 471.05557251 482.31777954 C462.61965876 490.70986307 453.82755379 498.27107673 444 505 C443.30068359 505.47969238 442.60136719 505.95938477 441.88085938 506.45361328 C436.99882105 509.76642501 432.02991033 512.91742502 427 516 C426.08444336 516.57113525 426.08444336 516.57113525 425.15039062 517.15380859 C403.56069467 530.50904854 379.20233928 538.81620896 355 546 C354.26072266 546.22623047 353.52144531 546.45246094 352.75976562 546.68554688 C306.68772771 560.74864581 257.6306696 560.45656294 209.99717271 560.31061522 C202.66375896 560.28874993 195.3303623 560.2846267 187.9969206 560.2812262 C174.92711686 560.27471772 161.85737042 560.25491192 148.78759766 560.22631836 C136.11832967 560.19863045 123.44907744 560.17746979 110.77978516 560.16479492 C109.99417693 560.16400675 109.20856871 560.16321858 108.39915417 560.16240653 C104.45659288 560.15849041 100.51403149 560.15469952 96.57147002 560.15097082 C64.04759583 560.12005013 31.52382864 560.06484415 -1 560 C-1 524.69 -1 489.38 -1 453 C15.5 453 32 453 49 453 C49 338.49 49 223.98 49 106 C32.83 106 16.66 106 0 106 C0 71.02 0 36.04 0 0 Z " fill="#FF751F" transform="translate(1244,227)"/>
<path d="M0 0 C41.27461248 -0.06630979 82.54917415 -0.12163511 123.82382477 -0.15319599 C128.71213978 -0.15694748 133.60045469 -0.16083051 138.48876953 -0.16479492 C139.46182186 -0.16558185 140.4348742 -0.16636878 141.43741296 -0.16717956 C157.13082302 -0.18018386 172.82419963 -0.20380982 188.51758994 -0.23145839 C204.65656983 -0.25965189 220.79553237 -0.2762055 236.93453586 -0.28226548 C246.86900201 -0.28635323 256.8033736 -0.2991967 266.7378106 -0.3237494 C273.57810064 -0.33977941 280.4183428 -0.344362 287.2586502 -0.34050413 C291.18739824 -0.33860897 295.11598274 -0.3412183 299.04470062 -0.35761642 C324.35635238 -0.45794898 349.51026826 0.71241468 374.375 5.875 C375.66607666 6.13474609 376.95715332 6.39449219 378.28735352 6.66210938 C387.43469063 8.55270928 396.22357102 10.80046664 405 14 C406.27811934 14.43254842 407.55678398 14.86348831 408.8359375 15.29296875 C427.89843632 21.86737935 447.29893236 31.92882559 461 47 C462.2065625 48.175625 462.2065625 48.175625 463.4375 49.375 C464.283125 50.24125 465.12875 51.1075 466 52 C466.58394531 52.5878125 467.16789062 53.175625 467.76953125 53.78125 C491.3877114 78.75037142 496.98387669 114.05449696 496.11376953 147.09667969 C495.79980898 155.10873749 495.00329446 163.04796242 494 171 C493.87117432 172.10069824 493.87117432 172.10069824 493.73974609 173.22363281 C490.59381304 199.04279712 478.55927185 222.881125 457.9375 239.0625 C430.19946677 260 430.19946677 260 418 260 C418 260.66 418 261.32 418 262 C418.98097656 262.10183594 419.96195312 262.20367187 420.97265625 262.30859375 C425.38274809 262.94493072 429.31473968 264.41492682 433.4375 266.0625 C434.2202832 266.37340576 435.00306641 266.68431152 435.80957031 267.00463867 C453.75283572 274.26626877 468.98796804 283.5511526 483 297 C483.90492188 297.84175781 484.80984375 298.68351562 485.7421875 299.55078125 C512.69076372 325.34228564 522.2403511 360.70019592 523.1953125 396.91015625 C523.81782926 438.43692028 514.2392498 478.41419788 485.4296875 509.56640625 C456.11635183 538.92686947 415.75681204 549.66112234 376 556 C374.92024902 556.17692383 373.84049805 556.35384766 372.72802734 556.53613281 C348.84626545 560.09747851 324.65573471 560.29823231 300.56582439 560.23213124 C296.51244563 560.22331053 292.45907111 560.22642972 288.40568542 560.22793579 C281.42003508 560.22897316 274.43442275 560.2228187 267.44878197 560.21146011 C257.34932603 560.19504938 247.24988805 560.18998139 237.15042023 560.18748413 C220.75578737 560.18313113 204.36117468 560.16988784 187.96655273 560.15087891 C172.06193135 560.13245754 156.15731548 560.11833186 140.25268555 560.10986328 C138.77659022 560.10907511 138.77659022 560.10907511 137.27067479 560.10827102 C132.33281156 560.10566052 127.3949483 560.1031332 122.45708501 560.10064721 C81.63803876 560.07998947 40.81902988 560.04316066 0 560 C0 525.68 0 491.36 0 456 C15.51 456 31.02 456 47 456 C47 339.51 47 223.02 47 103 C31.49 103 15.98 103 0 103 C0 69.01 0 35.02 0 0 Z " fill="#FF751F" transform="translate(71,227)"/>
<path d="M0 0 C8.94026406 7.84740103 16.83622227 16.84116967 23.86791992 26.4230957 C26.31136203 23.97965359 26.59331273 22.32822052 27.45385742 18.99731445 C27.88734497 17.34650879 27.88734497 17.34650879 28.32958984 15.66235352 C28.78168823 13.9042334 28.78168823 13.9042334 29.24291992 12.1105957 C29.87012537 9.72342944 30.49901112 7.33670397 31.12963867 4.95043945 C31.43047363 3.81074707 31.73130859 2.67105469 32.04125977 1.49682617 C33.23256573 -2.93274915 34.56890595 -7.300257 35.96166992 -11.6706543 C37.42823366 -16.37377248 38.72339895 -21.12580852 40.03588867 -25.8737793 C40.86791992 -28.5769043 40.86791992 -28.5769043 41.86791992 -29.5769043 C43.41145123 -29.67275428 44.95937101 -29.698785 46.50587463 -29.69715881 C48.00672151 -29.69922506 48.00672151 -29.69922506 49.53788853 -29.70133305 C51.20474406 -29.69593588 51.20474406 -29.69593588 52.90527344 -29.69042969 C54.08494407 -29.69055022 55.2646147 -29.69067076 56.48003292 -29.69079494 C60.31898283 -29.69004536 64.15788489 -29.68241504 67.99682617 -29.67456055 C70.35876441 -29.67309127 72.72070297 -29.67207047 75.0826416 -29.67150879 C83.86523932 -29.66625426 92.64783009 -29.6522932 101.43041992 -29.6394043 C130.85198242 -29.6084668 130.85198242 -29.6084668 160.86791992 -29.5769043 C160.86791992 48.3030957 160.86791992 126.1830957 160.86791992 206.4230957 C113.67791992 206.4230957 66.48791992 206.4230957 17.86791992 206.4230957 C16.84374925 203.35058367 16.58299087 200.53183337 16.32446289 197.3190918 C14.03303946 170.04411073 3.22185147 144.23549156 -17.49780273 125.79125977 C-37.69838313 108.8799881 -61.45741321 104.97059793 -87.13208008 106.4230957 C-112.01669981 109.13320406 -133.80022369 126.75614067 -149.13208008 145.4230957 C-162.11977589 162.08558475 -170.74456644 182.10777223 -176.13208008 202.4230957 C-176.32882324 203.15753906 -176.52556641 203.89198242 -176.72827148 204.64868164 C-181.10022786 221.27463874 -182.51600207 237.42305998 -182.44458008 254.5480957 C-182.44275726 255.45484039 -182.44093445 256.36158508 -182.4390564 257.29580688 C-182.39409802 270.57463565 -181.87708455 283.39513157 -179.13208008 296.4230957 C-178.7881079 298.23294932 -178.44436804 300.04284711 -178.10083008 301.8527832 C-173.03059124 327.27464273 -162.27538317 351.83446562 -145.13208008 371.4230957 C-144.47852539 372.17719727 -143.8249707 372.93129883 -143.15161133 373.70825195 C-128.50285751 389.41896234 -106.03882255 400.52732614 -84.59375 401.60009766 C-57.95538057 402.03759231 -32.6274438 401.37449636 -11.50317383 382.7902832 C-7.65993571 378.95337662 -4.25142624 374.86669259 -1.13208008 370.4230957 C-0.61347412 369.72192627 -0.09486816 369.02075684 0.43945312 368.29833984 C2.29768778 364.55805108 2.34567117 361.14928293 2.37963867 357.05981445 C2.40459412 356.00582458 2.40459412 356.00582458 2.43005371 354.93054199 C2.48756635 352.32419275 2.52003426 349.71733925 2.55541992 347.1105957 C2.65854492 341.2737207 2.76166992 335.4368457 2.86791992 329.4230957 C-12.97208008 329.4230957 -28.81208008 329.4230957 -45.13208008 329.4230957 C-45.13208008 301.3730957 -45.13208008 273.3230957 -45.13208008 244.4230957 C42.64791992 244.4230957 130.42791992 244.4230957 220.86791992 244.4230957 C220.86791992 272.8030957 220.86791992 301.1830957 220.86791992 330.4230957 C210.30791992 330.4230957 199.74791992 330.4230957 188.86791992 330.4230957 C188.86791992 396.4230957 188.86791992 462.4230957 188.86791992 530.4230957 C135.73791992 530.4230957 82.60791992 530.4230957 27.86791992 530.4230957 C9.29649135 493.28023856 9.29649135 493.28023856 3.86791992 481.4230957 C0.97762364 484.27400124 -1.81829251 487.14009547 -4.44458008 490.2355957 C-21.1707674 509.36147157 -42.43101692 520.18438934 -66.13208008 528.4230957 C-67.3412207 528.8459082 -68.55036133 529.2687207 -69.79614258 529.7043457 C-78.08002315 532.41767631 -86.53835645 534.05024857 -95.13208008 535.4230957 C-96.13940186 535.59446045 -97.14672363 535.7658252 -98.18457031 535.94238281 C-107.24677767 537.38381987 -116.16405136 537.78315858 -125.31958008 537.7355957 C-126.42033875 537.73286148 -126.42033875 537.73286148 -127.54333496 537.73007202 C-190.93219815 537.46747715 -251.54496503 513.77812656 -297.13208008 469.4230957 C-298.88426854 467.51161738 -300.58102019 465.57345118 -302.23364258 463.57543945 C-303.90695382 461.67833144 -305.63758111 459.9401926 -307.44848633 458.17700195 C-311.14233887 454.50897714 -314.31766661 450.5780091 -317.44458008 446.4230957 C-318.00508057 445.6818042 -318.56558105 444.9405127 -319.14306641 444.17675781 C-328.61267204 431.54298055 -336.81983782 418.41818706 -344.13208008 404.4230957 C-344.51219238 403.69703125 -344.89230469 402.9709668 -345.28393555 402.22290039 C-356.72465656 380.03633946 -365.01261344 355.50244401 -370.19458008 331.1105957 C-370.45134521 329.90435547 -370.70811035 328.69811523 -370.97265625 327.45532227 C-375.70534152 304.53283396 -377.31712879 281.56342571 -377.26245117 258.20556641 C-377.25709314 255.4922119 -377.26243234 252.77902335 -377.26879883 250.06567383 C-377.27751417 233.73006275 -376.51202314 217.77671997 -374.00708008 201.6105957 C-373.89948364 200.9082077 -373.79188721 200.2058197 -373.68103027 199.48214722 C-363.94635676 136.67481642 -336.25906664 78.2873652 -292.13208008 32.4230957 C-291.63321289 31.90231445 -291.1343457 31.3815332 -290.62036133 30.8449707 C-283.85677292 23.82057555 -276.82856469 17.43297204 -269.13208008 11.4230957 C-268.17172852 10.64579102 -267.21137695 9.86848633 -266.22192383 9.06762695 C-195.82863727 -46.90882974 -79.26015701 -62.50840734 0 0 Z " fill="#FF751F" transform="translate(991.132080078125,256.576904296875)"/>
<path d="M0 0 C43.24841025 0 76.5103022 0.60426121 107 31 C134.25755296 59.56904743 144.93058547 98.7032148 149 137 C149.08292297 137.72603928 149.16584595 138.45207855 149.25128174 139.20011902 C149.90234532 145.17741268 150.17271687 151.07934347 150.203125 157.08984375 C150.21013931 158.02384003 150.21715363 158.9578363 150.22438049 159.9201355 C150.24181155 162.9259732 150.24823505 165.93161358 150.25 168.9375 C150.25067474 169.96644379 150.25134949 170.99538757 150.25204468 172.05551147 C150.23520322 188.23290765 149.6439362 204.0077305 147 220 C146.83902832 221.0214209 146.67805664 222.0428418 146.51220703 223.09521484 C140.78724073 258.40742291 128.18789144 292.14513947 103 318 C102.12988281 318.98033203 102.12988281 318.98033203 101.2421875 319.98046875 C86.51503621 336.15073285 62.69119176 343.55146804 42 347 C28.14 347 14.28 347 0 347 C0 232.49 0 117.98 0 0 Z " fill="#FFFEFE" transform="translate(1458,333)"/>
<path d="M0 0 C11.6325 -0.061875 23.265 -0.12375 35.25 -0.1875 C38.8996582 -0.21481201 42.54931641 -0.24212402 46.30957031 -0.27026367 C50.82568359 -0.28381348 50.82568359 -0.28381348 52.95135498 -0.28633118 C54.4108557 -0.29088623 55.87034636 -0.30132776 57.32977295 -0.31672668 C66.61652775 -0.40966904 75.06020777 0.17348127 84 3 C85.79630859 3.54720703 85.79630859 3.54720703 87.62890625 4.10546875 C104.60024029 10.36520181 115.85807309 21.79559933 123.33984375 38.01953125 C131.74516276 57.39316361 130.95737336 79.40913878 124 99 C117.44640834 115.57781778 105.4533334 127.51774615 89.52734375 135.19140625 C78.11537577 140.09258426 66.60201926 140.28213424 54.39453125 140.1953125 C52.99589193 140.19236404 51.59725038 140.19032856 50.1986084 140.18920898 C45.06987147 140.1788147 39.9411821 140.1508926 34.8125 140.125 C23.324375 140.08375 11.83625 140.0425 0 140 C0 93.8 0 47.6 0 0 Z " fill="#FFFEFE" transform="translate(284,543)"/>
<path d="M0 0 C73.07844488 0 73.07844488 0 87.5 13.8125 C102.99202695 30.65055552 103.74893379 50.28091999 103 72 C102.0798236 85.11908644 97.58285966 98.52287743 88.0390625 107.93359375 C64.46922085 127.71694459 26.52546549 120 0 120 C0 80.4 0 40.8 0 0 Z " fill="#FFFEFE" transform="translate(284,333)"/>
</svg>
